<svg xmlns="http://www.w3.org/2000/svg" width="144" height="144" viewBox="0 0 144 144"><path fill="#53A318" d="M143 72.479c0 15.372-3.9 28.435-11.88 39.961C117.874 131.473 95.659 143 72.1 143c-20.454 0-37.787-7.488-51.426-21.704C7.626 107.656 1 90.738 1 70.562c0-18.834 7.404-36.129 21.033-49.379C35.671 7.912 52.82 1 72.482 1c29.614 0 55.514 17.877 66.617 47.074h-38.576c-8.565-8.84-17.51-13.251-28.424-13.251-20.254 0-36.232 16.328-36.232 35.925 0 21.724 17.142 38.434 36.232 38.434 12.847 0 24.337-6.526 31.175-18.443H63.723V63.445h78.874c.202 3.078.403 6.151.403 9.034z"/></svg>